<?xml version="1.0" encoding="UTF-8"?>
<!DOCTYPE svg PUBLIC "-//W3C//DTD SVG 1.1//EN" "http://www.w3.org/Graphics/SVG/1.1/DTD/svg11.dtd">
<!-- Creator: CorelDRAW X8 -->
<svg xmlns="http://www.w3.org/2000/svg" xml:space="preserve" width="210mm" height="210mm" version="1.1" style="shape-rendering:geometricPrecision; text-rendering:geometricPrecision; image-rendering:optimizeQuality; fill-rule:evenodd; clip-rule:evenodd"
viewBox="0 0 21000 21000"
 xmlns:xlink="http://www.w3.org/1999/xlink">
 <defs>
  <style type="text/css">
   <![CDATA[
    .fil0 {fill:#FEFEFE}
   ]]>
  </style>
 </defs>
 <g id="Livello_x0020_1">
  <metadata id="CorelCorpID_0Corel-Layer"/>
  <g id="_1962764008496">
   <path class="fil0" d="M20995 10157c-177,-5516 -4636,-9975 -10152,-10151 -3002,-96 -5810,1047 -7886,3190 -1995,2060 -3043,4775 -2951,7647 176,5516 4635,9975 10151,10151 115,4 229,6 343,6 2868,0 5547,-1135 7543,-3196 1995,-2059 3043,-4775 2952,-7647zm-4541 6109c-1575,1627 -3690,2523 -5954,2523 -91,0 -181,-2 -272,-5 -4354,-139 -7873,-3658 -8012,-8012 -73,-2267 755,-4412 2330,-6038 1575,-1627 3690,-2523 5954,-2523 91,0 181,2 272,5 4354,139 7873,3658 8012,8012 73,2268 -755,4412 -2330,6038z"/>
   <path class="fil0" d="M13944 9890l-4656 -3339c-497,-356 -1188,-1 -1188,610l0 6678c0,611 691,966 1188,610l4656 -3339c418,-299 418,-920 0,-1220z"/>
  </g>
  <g id="_1962764009264">
  </g>
  <g id="_1962764007952">
  </g>
  <g id="_1962764006960">
  </g>
  <g id="_1962764005552">
  </g>
  <g id="_1962764006256">
  </g>
  <g id="_1962764005456">
  </g>
  <g id="_1962764006736">
  </g>
  <g id="_1962764005392">
  </g>
  <g id="_1962764006672">
  </g>
  <g id="_1962764003248">
  </g>
  <g id="_1962764004304">
  </g>
  <g id="_1962764004464">
  </g>
  <g id="_1962764003568">
  </g>
  <g id="_1962764003504">
  </g>
  <g id="_1962764005168">
  </g>
 </g>
</svg>
